<?xml version="1.0" encoding="utf-8"?>
<!-- Generator: Adobe Illustrator 24.0.2, SVG Export Plug-In . SVG Version: 6.00 Build 0)  -->
<svg version="1.1" id="Capa_1" xmlns="http://www.w3.org/2000/svg" xmlns:xlink="http://www.w3.org/1999/xlink" x="0px" y="0px"
	 viewBox="0 0 65.86 46.49" style="enable-background:new 0 0 65.86 46.49;" xml:space="preserve">
<style type="text/css">
	.st0{clip-path:url(#SVGID_2_);}
	.st1{clip-path:url(#SVGID_6_);}
	.st2{clip-path:url(#SVGID_10_);}
	.st3{clip-path:url(#SVGID_14_);}
	.st4{clip-path:url(#SVGID_18_);}
	.st5{clip-path:url(#SVGID_22_);}
	.st6{clip-path:url(#SVGID_26_);}
	.st7{clip-path:url(#SVGID_30_);}
	.st8{clip-path:url(#SVGID_34_);}
	.st9{clip-path:url(#SVGID_38_);}
</style>
<g>
	<path d="M36.66,18.96c0,2.98,0.01,5.96-0.01,8.94c-0.01,1.51-1.07,2.72-2.5,2.94c-1.38,0.21-2.76-0.6-3.2-1.92
		c-0.14-0.43-0.21-0.9-0.21-1.35c-0.01-5.83-0.02-11.67,0-17.5c0.01-2.29,1.91-3.76,3.92-3.08c1.26,0.43,2,1.53,2,3.03
		C36.67,13,36.66,15.98,36.66,18.96z"/>
	<path d="M39.57,27.84c0-0.62,0-1.12,0-1.73c1.28,0,2.55-0.02,3.81,0.02c0.19,0.01,0.41,0.27,0.56,0.45
		c0.89,1.11,1.78,2.23,2.64,3.37c0.41,0.53,0.89,0.76,1.57,0.75c2.4-0.03,4.8-0.01,7.2-0.01c1.3,0,1.5-0.21,1.49-1.52
		c-0.02-3.98-0.04-7.95-0.07-11.93c-0.01-1-0.27-1.27-1.27-1.28c-2.42-0.01-4.85,0.01-7.27-0.01c-0.75,0-1.33,0.29-1.78,0.86
		c-0.73,0.92-1.5,1.81-2.17,2.77c-0.42,0.59-0.89,0.8-1.6,0.76c-1.01-0.06-2.02-0.02-3.07-0.02c0-0.62,0-1.14,0-1.77
		c0.86,0,1.69,0.05,2.52-0.02c0.35-0.03,0.77-0.23,1-0.49c0.71-0.8,1.33-1.68,2.02-2.5c0.76-0.9,1.73-1.39,2.94-1.39
		c2.55,0.01,5.1,0,7.66,0c1.69,0.01,2.84,1.15,2.84,2.83c0.01,4.31,0.01,8.62,0,12.92c0,1.28-0.8,2.24-2.06,2.46
		c-0.4,0.07-0.81,0.11-1.22,0.11c-2.42,0.01-4.85,0-7.27,0.01c-1.21,0.01-2.16-0.46-2.89-1.44c-0.7-0.94-1.42-1.87-2.18-2.76
		c-0.21-0.24-0.62-0.42-0.95-0.45C41.24,27.8,40.45,27.84,39.57,27.84z"/>
	<path d="M17.8,21.12c0.59-0.8,1.15-1.53,1.65-2.29c0.26-0.38,0.55-0.47,0.99-0.53c1.41-0.2,2.45,0.25,3.24,1.43
		c0.31,0.46,0.75,0.82,1.21,1.32c0.5-0.52,0.94-1.03,1.44-1.49c0.47-0.44,0.76-1.23,1.69-0.93c0.14,0.96,0.19,1.89-0.75,2.57
		c-0.34,0.25-0.6,0.62-0.89,0.94c-0.99,1.08-1.92,1.09-2.93,0.02c-0.53-0.56-1.03-1.13-1.56-1.68c-0.51-0.54-1.02-0.51-1.44,0.07
		c-0.48,0.66-0.95,1.33-1.43,1.98c-0.55,0.75-1.66,0.82-2.27,0.14c-0.61-0.68-1.28-1.33-1.79-2.09c-0.58-0.85-1.37-0.83-2.16-0.65
		c-1.38,0.31-2.23,1.46-2.16,2.9c0.02,0.34,0.19,0.74,0.41,0.99c0.45,0.52,0.98,0.96,1.49,1.42c0.65,0.59,1.42,0.85,2.3,0.85
		c4.03-0.01,8.07,0,12.1,0c0.28,0,0.56,0,0.89,0c0,0.57,0,1.09,0,1.69c-0.27,0.02-0.54,0.04-0.81,0.05c-2.61,0-5.22,0-7.82,0
		c-1.3,0-2.61,0-3.91,0c-2.26,0-4.12-1.06-5.57-2.75c-0.95-1.1-1.16-2.27-0.82-3.67c0.38-1.57,1.71-2.7,3.22-3.15
		c0.75-0.22,1.54-0.3,2.32-0.19c0.94,0.13,1.51,0.89,2.12,1.54C16.67,19.74,17.91,20.96,17.8,21.12z"/>
	<path d="M33.7,39.57c-1.64-0.01-2.98-1.37-2.94-2.97c0.04-1.64,1.39-2.95,3.01-2.91c1.61,0.04,2.9,1.34,2.9,2.94
		C36.67,38.26,35.33,39.58,33.7,39.57z"/>
	<path d="M51.07,23.24c0-1.35-0.01-2.7,0-4.05c0.01-0.77,0.41-1.2,1.07-1.19c0.61,0.01,1.06,0.46,1.06,1.16
		c0.02,2.7,0.02,5.4,0,8.09c0,0.78-0.5,1.29-1.14,1.26c-0.61-0.04-0.99-0.51-1-1.29C51.06,25.89,51.07,24.56,51.07,23.24z"/>
</g>
</svg>
