<?xml version="1.0" encoding="utf-8"?>
<!-- Generator: Adobe Illustrator 24.0.2, SVG Export Plug-In . SVG Version: 6.00 Build 0)  -->
<svg version="1.1" id="Capa_1" xmlns="http://www.w3.org/2000/svg" xmlns:xlink="http://www.w3.org/1999/xlink" x="0px" y="0px"
	 viewBox="0 0 65.86 49.59" style="enable-background:new 0 0 65.86 49.59;" xml:space="preserve">
<style type="text/css">
	.st0{clip-path:url(#SVGID_2_);}
	.st1{clip-path:url(#SVGID_6_);}
	.st2{clip-path:url(#SVGID_10_);}
	.st3{clip-path:url(#SVGID_14_);}
	.st4{clip-path:url(#SVGID_18_);}
	.st5{clip-path:url(#SVGID_22_);}
	.st6{clip-path:url(#SVGID_26_);}
	.st7{clip-path:url(#SVGID_30_);}
	.st8{clip-path:url(#SVGID_34_);}
	.st9{clip-path:url(#SVGID_38_);}
</style>
<g>
	<path d="M57.3,19.41c0.98,0,1.79,0,2.68,0c0,7.11,0,14.18,0,21.31c-9.37,0-18.74,0-28.16,0c0-7.08,0-14.13,0-21.27
		c1.03,0,2.08,0,3.22,0c0-0.74,0-1.39,0-2.08c0.91,0,1.72,0,2.62,0c0,0.63,0,1.28,0,1.98c5.72,0,11.35,0,17.01,0
		c0.31-3.11-0.06-6.05-2.02-8.6c-2.17-2.83-6.4-3.86-9.86-2.31c-0.96,0.43-1.88,0.61-2.9,0.57c-0.63-0.03-1.26-0.01-1.93-0.01
		c1.63-2.69,5.7-4.39,10.1-3.75c3.3,0.48,5.77,2.22,7.5,5.07C57.25,13.11,57.53,16.16,57.3,19.41z M34.44,22.12c0,5.4,0,10.71,0,16
		c7.7,0,15.32,0,22.95,0c0-5.36,0-10.66,0-16C49.73,22.12,42.1,22.12,34.44,22.12z"/>
	<path d="M28.57,22.64c-0.33,0-0.64,0-0.95,0c-3.61,0-7.22,0.01-10.83-0.01c-0.52,0-0.83,0.14-1.07,0.61
		c-0.39,0.77-0.85,1.51-1.35,2.37c2.79,0,5.46,0,8.18,0c0,1.03,0,1.99,0,3.02c-2.82,0-5.62,0-8.63,0c0.14,1.42,0.24,2.76,0.43,4.08
		c0.02,0.15,0.48,0.33,0.74,0.33c2.76,0.02,5.52,0.02,8.28,0.02c1.72,0,3.44,0,5.21,0c0,0.99,0,1.9,0,2.93c-3.24,0-6.49,0-9.84,0
		c0,0.65,0.01,1.19,0,1.74c-0.02,1.19-0.58,1.75-1.75,1.76c-1.35,0-2.71,0.01-4.06,0c-0.95-0.01-1.25-0.36-1.31-1.3
		c-0.15-2.24-0.39-4.48-0.48-6.73c-0.1-2.58-0.48-5.2,0.82-7.75c-1.24,0-2.37,0.01-3.5,0c-1.27-0.01-1.76-0.7-1.37-1.93
		c0.53-1.69,0.99-2.04,2.73-2.03c1.54,0.01,3.08,0.12,4.61,0.02c0.47-0.03,1.05-0.52,1.33-0.96c1.03-1.63,1.96-3.33,2.93-5.01
		c0.99-1.71,2.44-2.52,4.45-2.51c5.2,0.01,10.4-0.08,15.59-0.09c1.53,0,3.07,0.15,4.6,0.2c1,0.03,1.83,0.45,2.41,1.21
		c0.87,1.14,1.64,2.37,2.57,3.75c-1.28,0-2.28,0.02-3.28-0.02c-0.2-0.01-0.47-0.25-0.56-0.45c-0.57-1.25-1.51-1.64-2.86-1.62
		c-6.28,0.07-12.57,0.04-18.85,0.09c-0.42,0-1,0.31-1.24,0.66c-0.98,1.47-1.85,3.01-2.84,4.67c3.39,0,6.6,0,9.89,0
		C28.57,20.68,28.57,21.61,28.57,22.64z"/>
	<path d="M46.9,29.92c0.6,1.75,1.21,3.52,1.86,5.38c-1.76,0-3.43,0-5.19,0c0.65-1.82,1.29-3.6,1.92-5.38
		c-1.56-0.95-2.04-1.86-1.71-3.16c0.26-1.02,1.26-1.78,2.36-1.79c1.11-0.01,2.08,0.69,2.4,1.74C48.92,27.97,48.44,28.93,46.9,29.92z
		"/>
</g>
</svg>
