<?xml version="1.0" standalone="no"?>
<!DOCTYPE svg PUBLIC "-//W3C//DTD SVG 20010904//EN"
 "http://www.w3.org/TR/2001/REC-SVG-20010904/DTD/svg10.dtd">
<svg version="1.0" xmlns="http://www.w3.org/2000/svg"
 width="113.000000pt" height="93.000000pt" viewBox="0 0 113.000000 93.000000"
 preserveAspectRatio="xMidYMid meet">

<g transform="translate(0.000000,93.000000) scale(0.100000,-0.100000)"
fill="#000000" stroke="none">
<path d="M454 767 c-60 -23 -120 -69 -154 -118 -45 -66 -60 -111 -60 -184 0
-127 69 -235 185 -290 77 -36 195 -36 269 1 67 34 118 84 150 149 35 71 37
201 5 269 -33 71 -84 123 -154 156 -53 25 -74 30 -136 29 -41 0 -88 -6 -105
-12z m232 -70 c45 -23 108 -99 122 -145 19 -62 15 -146 -9 -197 -45 -95 -123
-147 -232 -153 -58 -4 -75 0 -122 23 -144 70 -194 239 -111 377 74 123 222
163 352 95z"/>
<path d="M410 454 l0 -155 33 3 c31 3 32 4 35 56 3 51 4 52 35 52 53 0 104 19
121 45 25 39 21 98 -10 129 -25 24 -33 26 -120 26 l-94 0 0 -156z m139 95 c62
-22 30 -79 -45 -79 -22 0 -24 4 -24 45 0 50 9 55 69 34z"/>
<path d="M676 595 c-3 -9 -6 -56 -6 -105 0 -67 4 -91 15 -100 28 -23 36 3 33
111 -3 86 -6 104 -19 107 -9 2 -19 -4 -23 -13z"/>
<path d="M681 336 c-16 -19 -6 -36 20 -36 15 0 20 6 17 22 -4 27 -21 33 -37
14z"/>
<path d="M215 743 c-14 -16 -40 -57 -57 -93 -31 -62 -32 -70 -32 -185 0 -134
12 -174 80 -267 39 -52 52 -58 77 -30 15 17 14 20 -14 55 -16 20 -42 62 -57
94 -23 50 -27 71 -27 148 0 78 4 99 29 152 15 34 37 70 47 79 25 22 24 51 -1
64 -15 8 -24 5 -45 -17z"/>
<path d="M849 751 l-23 -19 29 -38 c104 -136 101 -347 -7 -470 l-31 -35 21
-22 c21 -20 22 -20 42 -2 66 60 120 196 120 303 0 73 -34 181 -79 245 -40 59
-44 61 -72 38z"/>
</g>
</svg>
