<?xml version="1.0" encoding="utf-8"?>
<!-- Generator: Adobe Illustrator 24.0.2, SVG Export Plug-In . SVG Version: 6.00 Build 0)  -->
<svg version="1.1" id="Capa_1" xmlns="http://www.w3.org/2000/svg" xmlns:xlink="http://www.w3.org/1999/xlink" x="0px" y="0px"
	 viewBox="0 0 44.62 44.94" style="enable-background:new 0 0 44.62 44.94;" xml:space="preserve">
<style type="text/css">
	.st0{clip-path:url(#SVGID_2_);}
	.st1{clip-path:url(#SVGID_6_);}
	.st2{clip-path:url(#SVGID_10_);}
	.st3{clip-path:url(#SVGID_14_);}
	.st4{clip-path:url(#SVGID_18_);}
	.st5{clip-path:url(#SVGID_22_);}
	.st6{clip-path:url(#SVGID_26_);}
	.st7{clip-path:url(#SVGID_30_);}
	.st8{clip-path:url(#SVGID_34_);}
	.st9{clip-path:url(#SVGID_38_);}
</style>
<g>
	<path d="M36.67,40.77c-1.09,0-2.06,0-3.11,0c0-1.6,0-3.18,0-4.87c-0.93,0-1.78-0.02-2.63,0.03c-0.12,0.01-0.32,0.37-0.32,0.57
		c-0.03,1.39-0.01,2.79-0.01,4.25c-1.03,0-2.02,0-3.13,0c0-0.99,0-1.99,0-2.99c0-0.41-0.02-0.82,0.01-1.23
		c0.03-0.45-0.11-0.66-0.6-0.64c-0.77,0.03-1.53,0.01-2.4,0.01c0,1.64,0,3.22,0,4.9c-1,0-1.91,0.02-2.81-0.03
		c-0.12-0.01-0.31-0.37-0.32-0.58c-0.03-1.13-0.01-2.26-0.02-3.39c0-0.28-0.03-0.56-0.05-0.87c-0.95,0-1.84,0-2.79,0
		c0,1.61,0,3.18,0,4.82c-1.07,0-2.06,0-3.17,0c0-1.19,0.01-2.38,0-3.58c-0.01-1.48,0.15-1.26-1.26-1.28c-0.43-0.01-0.86,0-1.37,0
		c-0.03,0.32-0.07,0.6-0.07,0.87c-0.01,1.16-0.02,2.31,0,3.47c0.01,0.43-0.15,0.6-0.59,0.58c-0.65-0.03-1.3-0.03-1.95,0
		c-0.44,0.02-0.6-0.15-0.59-0.58c0.02-1.03,0.02-2.07-0.01-3.1c-0.01-0.26-0.08-0.62-0.25-0.77c-2.3-1.93-3.51-4.49-4.2-7.31
		c-1.17-4.82-0.99-9.58,0.92-14.2c0.7-1.68,1.69-3.18,3.09-4.38c0.2-0.17,0.34-0.51,0.36-0.79C9.43,8.88,9.39,8.08,9.4,7.29
		c0.02-1.01,0.68-1.68,1.66-1.7c0.99-0.01,1.72,0.64,1.74,1.62c0.03,1.52,0.02,3.03,0,4.55c0,0.19-0.15,0.49-0.31,0.55
		c-1.69,0.73-2.71,2.09-3.35,3.71c-2.02,5.11-2.01,10.21,0.33,15.23c0.24,0.52,0.59,0.99,0.94,1.45c0.72,0.95,1.61,1.41,2.9,1.39
		c6.57-0.06,13.14-0.05,19.71-0.01c1.11,0.01,1.88-0.41,2.55-1.19c1.23-1.44,1.93-3.15,2.33-4.97c0.93-4.14,0.76-8.21-0.99-12.13
		c-0.66-1.48-1.6-2.73-3.15-3.43c-0.19-0.09-0.38-0.42-0.39-0.65c-0.03-1.49-0.03-2.98-0.01-4.48c0.02-1.01,0.71-1.65,1.7-1.65
		c0.97,0,1.67,0.68,1.7,1.67c0.02,0.82-0.01,1.64,0.02,2.45c0.01,0.22,0.07,0.51,0.22,0.63c2.47,2.1,3.67,4.9,4.32,7.96
		c0.96,4.55,0.72,9.03-1.05,13.37c-0.73,1.78-1.76,3.36-3.25,4.61c-0.2,0.17-0.34,0.52-0.35,0.79
		C36.65,38.29,36.67,39.49,36.67,40.77z"/>
	<path d="M24.8,15.1c0,2.67,0,5.34,0,8.01c0,1.2-0.7,1.95-1.81,1.96c-1.16,0.01-1.89-0.74-1.89-1.97c0-5.34,0-10.68,0-16.01
		c0-1.19,0.79-2.05,1.86-2.04c1.09,0.01,1.84,0.83,1.84,2.05C24.81,9.76,24.8,12.43,24.8,15.1z"/>
	<path d="M23.15,32.3c-1.32,0-2.26-0.91-2.24-2.19c0.02-1.24,0.94-2.13,2.23-2.13c1.32,0,2.26,0.92,2.24,2.19
		C25.37,31.4,24.43,32.29,23.15,32.3z"/>
</g>
</svg>
