<?xml version="1.0" encoding="utf-8"?>
<!-- Generator: Adobe Illustrator 24.0.2, SVG Export Plug-In . SVG Version: 6.00 Build 0)  -->
<svg version="1.1" id="Capa_1" xmlns="http://www.w3.org/2000/svg" xmlns:xlink="http://www.w3.org/1999/xlink" x="0px" y="0px"
	 viewBox="0 0 32 19" style="enable-background:new 0 0 32 19;" xml:space="preserve">
<style type="text/css">
	.st0{fill:#5AA8DD;}
	.st1{fill:#7AB957;}
	.st2{fill:#EBD74D;}
	.st3{fill:#E8E8E8;}
	.st4{fill:#D1D0D1;}
	.st5{fill:#D93730;}
	.st6{fill:#8B0A2D;}
	.st7{fill:none;stroke:#8B0A2D;stroke-width:0.2;stroke-miterlimit:10;}
	.st8{fill:#1D1D1B;}
	.st9{fill:none;stroke:#616160;stroke-width:0.5;stroke-miterlimit:10;}
	.st10{fill:#909090;}
	.st11{fill:none;stroke:#6F6F6E;stroke-width:0.75;stroke-miterlimit:10;}
	.st12{fill:#616160;}
	.st13{fill:none;stroke:#4C4B4C;stroke-width:0.5;stroke-miterlimit:10;}
	.st14{fill:#4C4B4C;}
	.st15{fill:none;stroke:#4C4B4C;stroke-width:0.25;stroke-miterlimit:10;}
	.st16{fill:none;stroke:#FFFFFF;stroke-width:2.5099;stroke-miterlimit:10;}
	.st17{fill:#FFFFFF;}
	.st18{fill:none;stroke:#FFFFFF;stroke-width:3.2007;stroke-miterlimit:10;}
	.st19{fill:none;stroke:#050505;stroke-width:4;stroke-miterlimit:10;}
	.st20{fill:#822425;}
	.st21{fill:#FFFFFF;stroke:#822425;stroke-width:4;stroke-miterlimit:10;}
	.st22{fill:#FFFFFF;stroke:#050505;stroke-width:4;stroke-miterlimit:10;}
</style>
<g>
	<g>
		<path class="st6" d="M8.55,12.87h10.29l4.89-6l1.11-0.35l0.84,0.84l0.62-0.62l-1.23-1.23l-6.74,2.11l-2.02-2.04h-2.73V4.85h1.23
			V3.97h-3.43v0.88h1.32v0.74H9.4l0.04-1.06L6.14,3.21L5.19,5.62l3.34,1.32v5.93H8.55z M9.43,6.47h3.29h0.88h2.36l2.15,2.16
			l4.1-1.28l-3.78,4.64H9.43V6.47z M8.52,5.97L6.34,5.13l0.3-0.76l1.9,0.74L8.52,5.97z"/>
		<path class="st6" d="M27.02,9.56l-0.98-1.71l-0.98,1.71c-0.21,0.35-0.21,0.79,0,1.14c0.21,0.35,0.58,0.56,0.98,0.56
			c0.4,0,0.77-0.21,0.98-0.56C27.23,10.35,27.23,9.91,27.02,9.56z M26.26,10.27c-0.02,0.04-0.09,0.12-0.23,0.12
			s-0.21-0.09-0.23-0.12s-0.07-0.14,0-0.26l0.23-0.39L26.26,10C26.33,10.13,26.28,10.23,26.26,10.27z"/>
		<path class="st6" d="M26.19,14.14c-0.79-0.42-1.55-0.62-2.25-0.56c-0.51,0.04-0.84,0.18-1.13,0.3c-0.26,0.11-0.47,0.21-0.81,0.21
			c-0.35,0-0.56-0.09-0.81-0.21c-0.3-0.14-0.63-0.28-1.16-0.28h-0.02c-0.53,0-0.84,0.16-1.14,0.28c-0.25,0.11-0.44,0.21-0.79,0.21
			h-0.02c-0.35,0-0.55-0.09-0.79-0.19c-0.3-0.12-0.63-0.28-1.2-0.28c-0.55,0-0.9,0.14-1.21,0.26c-0.28,0.11-0.49,0.21-0.86,0.19
			c-0.37,0-0.6-0.11-0.84-0.21c-0.28-0.12-0.62-0.26-1.14-0.26H12c-0.55,0-0.86,0.16-1.16,0.28c-0.25,0.11-0.46,0.21-0.79,0.21
			s-0.55-0.09-0.81-0.19c-0.28-0.12-0.62-0.25-1.13-0.28c-0.7-0.05-1.48,0.12-2.27,0.47c-0.21,0.09-0.32,0.35-0.21,0.58
			c0.11,0.23,0.37,0.32,0.58,0.21c0.67-0.3,1.28-0.44,1.85-0.4c0.37,0.02,0.6,0.12,0.84,0.23c0.3,0.12,0.63,0.26,1.14,0.26
			c0.55,0,0.86-0.16,1.16-0.28c0.25-0.11,0.46-0.21,0.81-0.21s0.55,0.09,0.81,0.19c0.3,0.12,0.63,0.28,1.18,0.28
			c0.55,0,0.9-0.14,1.21-0.26c0.26-0.11,0.47-0.19,0.84-0.19h0.02c0.37,0,0.6,0.11,0.86,0.21c0.3,0.12,0.63,0.26,1.18,0.26
			c0.55,0,0.86-0.16,1.14-0.28c0.25-0.11,0.44-0.19,0.77-0.21c0.35,0,0.56,0.09,0.81,0.21c0.3,0.14,0.63,0.28,1.16,0.28h0.02
			c0.53,0,0.86-0.14,1.16-0.28c0.25-0.11,0.47-0.21,0.83-0.23c0.53-0.04,1.14,0.12,1.79,0.47c0.07,0.04,0.14,0.05,0.21,0.05
			c0.16,0,0.32-0.09,0.39-0.23C26.49,14.52,26.42,14.24,26.19,14.14z"/>
	</g>
</g>
</svg>
