<?xml version="1.0" encoding="utf-8"?>
<!-- Generator: Adobe Illustrator 24.0.2, SVG Export Plug-In . SVG Version: 6.00 Build 0)  -->
<svg version="1.1" id="Capa_1" xmlns="http://www.w3.org/2000/svg" xmlns:xlink="http://www.w3.org/1999/xlink" x="0px" y="0px"
	 viewBox="0 0 13 13" style="enable-background:new 0 0 13 13;" xml:space="preserve">
<style type="text/css">
	.st0{fill:#5AA8DD;}
	.st1{fill:#7AB957;}
	.st2{fill:#EBD74D;}
	.st3{fill:#E8E8E8;}
	.st4{fill:#D1D0D1;}
	.st5{fill:#D93730;}
	.st6{fill:#8B0A2D;}
	.st7{fill:none;stroke:#8B0A2D;stroke-width:0.2;stroke-miterlimit:10;}
	.st8{fill:#1D1D1B;}
	.st9{fill:none;stroke:#616160;stroke-width:0.5;stroke-miterlimit:10;}
	.st10{fill:#909090;}
	.st11{fill:none;stroke:#6F6F6E;stroke-width:0.75;stroke-miterlimit:10;}
	.st12{fill:#616160;}
	.st13{fill:none;stroke:#4C4B4C;stroke-width:0.5;stroke-miterlimit:10;}
	.st14{fill:#4C4B4C;}
	.st15{fill:none;stroke:#4C4B4C;stroke-width:0.25;stroke-miterlimit:10;}
	.st16{fill:none;stroke:#FFFFFF;stroke-width:2.5099;stroke-miterlimit:10;}
	.st17{fill:#FFFFFF;}
	.st18{fill:none;stroke:#FFFFFF;stroke-width:3.2007;stroke-miterlimit:10;}
	.st19{fill:none;stroke:#050505;stroke-width:4;stroke-miterlimit:10;}
	.st20{fill:#822425;}
	.st21{fill:#FFFFFF;stroke:#822425;stroke-width:4;stroke-miterlimit:10;}
	.st22{fill:#FFFFFF;stroke:#050505;stroke-width:4;stroke-miterlimit:10;}
</style>
<g>
	<path class="st7" d="M5.86,11.22L5.86,11.22c-1.63,0-2.97-1.34-2.97-2.97V4.7c0-1.63,1.34-2.97,2.97-2.97h0
		c1.63,0,2.97,1.34,2.97,2.97v3.56C8.83,9.89,7.5,11.22,5.86,11.22z"/>
	<line class="st7" x1="5.86" y1="1.76" x2="5.86" y2="11.27"/>
	<line class="st7" x1="5.08" y1="1.76" x2="5.08" y2="11.12"/>
	<line class="st7" x1="4.3" y1="2.17" x2="4.3" y2="10.8"/>
	<line class="st7" x1="3.52" y1="2.87" x2="3.52" y2="10.1"/>
	<line class="st7" x1="6.25" y1="1.76" x2="6.25" y2="11.27"/>
	<line class="st7" x1="6.6" y1="1.76" x2="6.6" y2="11.16"/>
	<line class="st7" x1="6.95" y1="1.97" x2="6.95" y2="10.98"/>
	<line class="st7" x1="7.29" y1="2.06" x2="7.29" y2="10.85"/>
	<line class="st7" x1="7.6" y1="2.29" x2="7.6" y2="10.63"/>
	<line class="st7" x1="7.99" y1="2.6" x2="7.99" y2="10.32"/>
	<line class="st7" x1="8.33" y1="3.05" x2="8.33" y2="9.9"/>
	<line class="st7" x1="2.07" y1="4.89" x2="9.18" y2="4.89"/>
	<line class="st7" x1="4.67" y1="7.06" x2="9.35" y2="7.06"/>
	<line class="st7" x1="0.85" y1="9.32" x2="9.57" y2="9.32"/>
	<polygon class="st7" points="9.66,4.89 9.12,4.59 9.12,5.2 	"/>
	<polygon class="st7" points="9.66,7.06 9.12,6.76 9.12,7.37 	"/>
	<polygon class="st7" points="9.87,9.32 9.34,9.01 9.34,9.63 	"/>
</g>
</svg>
