<?xml version="1.0" encoding="utf-8"?>
<!-- Generator: Adobe Illustrator 24.0.2, SVG Export Plug-In . SVG Version: 6.00 Build 0)  -->
<svg version="1.1" id="Capa_1" xmlns="http://www.w3.org/2000/svg" xmlns:xlink="http://www.w3.org/1999/xlink" x="0px" y="0px"
	 viewBox="0 0 15 13" style="enable-background:new 0 0 15 13;" xml:space="preserve">
<style type="text/css">
	.st0{fill:#5AA8DD;}
	.st1{fill:#7AB957;}
	.st2{fill:#EBD74D;}
	.st3{fill:#E8E8E8;}
	.st4{fill:#D1D0D1;}
	.st5{fill:#D93730;}
	.st6{fill:#8B0A2D;}
	.st7{fill:none;stroke:#8B0A2D;stroke-width:0.2;stroke-miterlimit:10;}
	.st8{fill:#1D1D1B;}
	.st9{fill:none;stroke:#616160;stroke-width:0.5;stroke-miterlimit:10;}
	.st10{fill:#909090;}
	.st11{fill:none;stroke:#6F6F6E;stroke-width:0.75;stroke-miterlimit:10;}
	.st12{fill:#616160;}
	.st13{fill:none;stroke:#4C4B4C;stroke-width:0.5;stroke-miterlimit:10;}
	.st14{fill:#4C4B4C;}
	.st15{fill:none;stroke:#4C4B4C;stroke-width:0.25;stroke-miterlimit:10;}
	.st16{fill:none;stroke:#FFFFFF;stroke-width:2.5099;stroke-miterlimit:10;}
	.st17{fill:#FFFFFF;}
	.st18{fill:none;stroke:#FFFFFF;stroke-width:3.2007;stroke-miterlimit:10;}
	.st19{fill:none;stroke:#050505;stroke-width:4;stroke-miterlimit:10;}
	.st20{fill:#822425;}
	.st21{fill:#FFFFFF;stroke:#822425;stroke-width:4;stroke-miterlimit:10;}
	.st22{fill:#FFFFFF;stroke:#050505;stroke-width:4;stroke-miterlimit:10;}
</style>
<g>
	<path class="st6" d="M7.04,11.31c-2.69,0-4.88-2.18-4.88-4.88s2.18-4.88,4.88-4.88s4.88,2.18,4.88,4.88S9.74,11.31,7.04,11.31z
		 M7.04,2.54c-2.15,0-3.9,1.75-3.9,3.9s1.75,3.9,3.9,3.9s3.9-1.75,3.9-3.9S9.2,2.54,7.04,2.54z"/>
	<path class="st6" d="M3.67,12.29c-0.09,0-0.18-0.03-0.26-0.07C0.22,10.21-0.74,5.99,1.27,2.8c0.54-0.86,1.27-1.59,2.14-2.14
		c0.24-0.13,0.53-0.04,0.66,0.2c0.11,0.21,0.05,0.48-0.14,0.62C1.19,3.21,0.37,6.82,2.09,9.56c0.47,0.74,1.09,1.37,1.83,1.83
		c0.23,0.15,0.29,0.45,0.15,0.67C3.98,12.2,3.83,12.29,3.67,12.29z"/>
	<path class="st6" d="M10.42,12.29c-0.27,0-0.49-0.22-0.49-0.49c0-0.17,0.09-0.33,0.23-0.42c2.74-1.72,3.56-5.34,1.83-8.07
		c-0.47-0.74-1.09-1.37-1.83-1.83c-0.23-0.14-0.3-0.45-0.15-0.67c0.14-0.23,0.45-0.3,0.67-0.15c3.19,2.01,4.15,6.23,2.14,9.42
		c-0.54,0.86-1.27,1.59-2.14,2.14C10.6,12.26,10.51,12.29,10.42,12.29z"/>
	<path class="st6" d="M7.01,8.97C7.16,8.97,7.3,9.02,7.4,9.11c0.11,0.1,0.16,0.25,0.15,0.4c0,0.12-0.06,0.23-0.15,0.31
		C7.31,9.9,7.18,9.94,7.05,9.94c-0.14,0-0.26-0.06-0.36-0.16C6.6,9.69,6.54,9.57,6.54,9.44c0-0.12,0.05-0.24,0.14-0.33
		C6.77,9.02,6.89,8.97,7.01,8.97z"/>
	<path class="st6" d="M6.55,3.37c0-0.12,0.05-0.23,0.14-0.31c0.09-0.09,0.22-0.14,0.35-0.13c0.13,0,0.25,0.05,0.33,0.15
		C7.46,3.17,7.5,3.29,7.51,3.41c0,0.29-0.03,0.99-0.1,2.11c-0.07,1.11-0.1,1.78-0.11,2C7.3,7.68,7.28,7.84,7.24,8
		C7.21,8.09,7.12,8.15,7.02,8.13c-0.13,0-0.2-0.09-0.21-0.26L6.55,3.37z"/>
</g>
</svg>
