<?xml version="1.0" encoding="utf-8"?>
<!-- Generator: Adobe Illustrator 24.0.2, SVG Export Plug-In . SVG Version: 6.00 Build 0)  -->
<svg version="1.1" id="Capa_1" xmlns="http://www.w3.org/2000/svg" xmlns:xlink="http://www.w3.org/1999/xlink" x="0px" y="0px"
	 viewBox="0 0 20 16" style="enable-background:new 0 0 20 16;" xml:space="preserve">
<style type="text/css">
	.st0{fill:#5AA8DD;}
	.st1{fill:#7AB957;}
	.st2{fill:#EBD74D;}
	.st3{fill:#E8E8E8;}
	.st4{fill:#D1D0D1;}
	.st5{fill:#D93730;}
	.st6{fill:#8B0A2D;}
	.st7{fill:none;stroke:#8B0A2D;stroke-width:0.2;stroke-miterlimit:10;}
	.st8{fill:#1D1D1B;}
	.st9{fill:none;stroke:#616160;stroke-width:0.5;stroke-miterlimit:10;}
	.st10{fill:#909090;}
	.st11{fill:none;stroke:#6F6F6E;stroke-width:0.75;stroke-miterlimit:10;}
	.st12{fill:#616160;}
	.st13{fill:none;stroke:#4C4B4C;stroke-width:0.5;stroke-miterlimit:10;}
	.st14{fill:#4C4B4C;}
	.st15{fill:none;stroke:#4C4B4C;stroke-width:0.25;stroke-miterlimit:10;}
	.st16{fill:none;stroke:#FFFFFF;stroke-width:2.5099;stroke-miterlimit:10;}
	.st17{fill:#FFFFFF;}
	.st18{fill:none;stroke:#FFFFFF;stroke-width:3.2007;stroke-miterlimit:10;}
	.st19{fill:none;stroke:#050505;stroke-width:4;stroke-miterlimit:10;}
	.st20{fill:#822425;}
	.st21{fill:#FFFFFF;stroke:#822425;stroke-width:4;stroke-miterlimit:10;}
	.st22{fill:#FFFFFF;stroke:#050505;stroke-width:4;stroke-miterlimit:10;}
</style>
<g>
	<path class="st6" d="M12.16,4.11c0.24-0.27,0.47-0.53,0.74-0.77c0.12-0.12,0.15-0.3,0.03-0.41s-0.3-0.15-0.41-0.03
		c-0.35,0.3-0.65,0.65-0.95,1c-0.03,0.03-0.06,0.09-0.06,0.15c-0.38-0.03-0.77-0.06-1.18-0.06s-0.8,0.03-1.18,0.06
		c0-0.06-0.03-0.09-0.06-0.15c-0.3-0.35-0.59-0.71-0.95-1c-0.12-0.12-0.3-0.09-0.41,0.03c-0.12,0.12-0.09,0.3,0.03,0.41
		c0.27,0.24,0.5,0.5,0.74,0.77C5.66,4.49,3.03,5.79,0.96,7.86C0.9,7.92,0.87,7.98,0.87,8.07S0.9,8.21,0.96,8.27l5.76,5.49
		c0.06,0.06,0.12,0.09,0.21,0.09c0.06,0,0.12-0.03,0.15-0.06c0.47-0.32,0.95-0.56,1.45-0.71l2.66,2.54c0.12,0.12,0.3,0.12,0.41,0
		s0.12-0.3,0-0.41l-2.42-2.3c1.36-0.27,2.75,0.03,4.16,0.92c0.12,0.06,0.27,0.06,0.35-0.03l6-5.49c0.06-0.06,0.09-0.12,0.09-0.21
		c0-0.09-0.03-0.15-0.09-0.21C17.62,5.79,14.99,4.49,12.16,4.11z M13.49,13.21c-1.09-0.65-2.22-0.97-3.31-0.97
		c-0.5,0-1,0.06-1.51,0.21l-4.7-4.52c-0.12-0.12-0.3-0.12-0.41,0c-0.12,0.12-0.12,0.3,0,0.41l4.49,4.31
		c-0.35,0.15-0.74,0.32-1.09,0.56L1.58,8.07c2.36-2.24,5.46-3.49,8.74-3.49s6.35,1.24,8.71,3.49L13.49,13.21z"/>
	<path class="st6" d="M16.44,1.18c-0.15,0.03-0.3,0.15-0.27,0.32c0.03,0.18,0.18,0.27,0.32,0.27c0.21-0.03,0.44-0.03,0.68-0.03
		c0.18,0,0.3-0.12,0.3-0.3s-0.12-0.3-0.3-0.3C16.94,1.16,16.7,1.16,16.44,1.18z"/>
	<path class="st6" d="M14.87,1.54c-0.44,0.15-0.86,0.32-1.24,0.56c-0.15,0.09-0.18,0.27-0.12,0.41c0.09,0.15,0.27,0.18,0.41,0.12
		c0.35-0.21,0.74-0.38,1.15-0.53c0.15-0.06,0.24-0.21,0.18-0.38C15.2,1.57,15.02,1.48,14.87,1.54z"/>
	<path class="st6" d="M10.32,7.42C10.15,7.39,9.97,7.51,10,7.8v3.37c0,0.18,0.12,0.3,0.3,0.3s0.3-0.12,0.3-0.3
		c0-0.65-0.03-2.57,0.06-3.43C10.65,7.56,10.53,7.42,10.32,7.42z"/>
	<path class="st6" d="M3.47,1.16c-0.18,0-0.3,0.12-0.3,0.3s0.12,0.3,0.3,0.3c0.24,0,0.44,0,0.68,0.03C4.3,1.8,4.45,1.69,4.48,1.51
		c0.03-0.15-0.09-0.3-0.27-0.32C3.97,1.16,3.71,1.16,3.47,1.16z"/>
	<path class="st6" d="M9.82,5.05C9.73,4.91,9.56,4.85,9.44,4.94C9.29,5.02,9.23,5.2,9.32,5.32C9.5,5.7,9.68,6.09,9.79,6.5
		C9.85,6.65,10,6.74,10.15,6.71c0.09-0.03,0.15-0.09,0.18-0.18c0.03,0.09,0.09,0.15,0.18,0.18c0.15,0.06,0.32-0.06,0.35-0.21
		c0.12-0.41,0.27-0.8,0.47-1.18c0.09-0.15,0.03-0.32-0.12-0.38c-0.15-0.09-0.32-0.03-0.38,0.12c-0.21,0.41-0.38,0.83-0.5,1.24
		C10.21,5.88,10.03,5.47,9.82,5.05z"/>
	<path class="st6" d="M5.78,1.54C5.63,1.48,5.45,1.57,5.39,1.72S5.42,2.04,5.57,2.1c0.38,0.15,0.77,0.32,1.15,0.53
		c0.15,0.09,0.32,0.03,0.41-0.12C7.22,2.37,7.16,2.19,7.02,2.1C6.63,1.86,6.22,1.69,5.78,1.54z"/>
</g>
</svg>
