<?xml version="1.0" encoding="utf-8"?>
<!-- Generator: Adobe Illustrator 24.0.2, SVG Export Plug-In . SVG Version: 6.00 Build 0)  -->
<svg version="1.1" id="Capa_1" xmlns="http://www.w3.org/2000/svg" xmlns:xlink="http://www.w3.org/1999/xlink" x="0px" y="0px"
	 viewBox="0 0 29 17" style="enable-background:new 0 0 29 17;" xml:space="preserve">
<style type="text/css">
	.st0{fill:#5AA8DD;}
	.st1{fill:#7AB957;}
	.st2{fill:#EBD74D;}
	.st3{fill:#E8E8E8;}
	.st4{fill:#D1D0D1;}
	.st5{fill:#D93730;}
	.st6{fill:#8B0A2D;}
	.st7{fill:none;stroke:#8B0A2D;stroke-width:0.2;stroke-miterlimit:10;}
	.st8{fill:#1D1D1B;}
	.st9{fill:none;stroke:#616160;stroke-width:0.5;stroke-miterlimit:10;}
	.st10{fill:#909090;}
	.st11{fill:none;stroke:#6F6F6E;stroke-width:0.75;stroke-miterlimit:10;}
	.st12{fill:#616160;}
	.st13{fill:none;stroke:#4C4B4C;stroke-width:0.5;stroke-miterlimit:10;}
	.st14{fill:#4C4B4C;}
	.st15{fill:none;stroke:#4C4B4C;stroke-width:0.25;stroke-miterlimit:10;}
	.st16{fill:none;stroke:#FFFFFF;stroke-width:2.5099;stroke-miterlimit:10;}
	.st17{fill:#FFFFFF;}
	.st18{fill:none;stroke:#FFFFFF;stroke-width:3.2007;stroke-miterlimit:10;}
	.st19{fill:none;stroke:#050505;stroke-width:4;stroke-miterlimit:10;}
	.st20{fill:#822425;}
	.st21{fill:#FFFFFF;stroke:#822425;stroke-width:4;stroke-miterlimit:10;}
	.st22{fill:#FFFFFF;stroke:#050505;stroke-width:4;stroke-miterlimit:10;}
</style>
<g>
	<path class="st6" d="M14.32,4.62c0.15,0.14,0.32,0.26,0.5,0.37c0.17,0.11,0.32,0.24,0.49,0.34c0.22,0.12,0.37,0.02,0.55-0.12
		c0.16-0.13,0.34-0.23,0.34-0.46c0-0.46-0.01-0.91,0-1.37c0-0.19-0.09-0.44-0.32-0.45c-0.26-0.01-0.55,0.18-0.76,0.31
		c-0.33,0.2-0.62,0.46-0.86,0.76c-0.04,0.05-0.06,0.1-0.08,0.16c-0.02,0.06-0.02,0.12-0.01,0.18C14.17,4.44,14.23,4.54,14.32,4.62z"
		/>
	<path class="st6" d="M15.01,7.35c0.11-0.14,0.1-0.36,0.09-0.53c-0.01-0.21,0.04-0.48-0.16-0.62c-0.16-0.11-0.31-0.22-0.47-0.33
		c-0.12-0.08-0.23-0.16-0.35-0.24c-0.09-0.06-0.19-0.15-0.29-0.19c-0.14-0.05-0.29,0.03-0.36,0.15c-0.09,0.15-0.1,0.36-0.12,0.53
		c-0.03,0.2-0.05,0.41-0.05,0.61c0,0.23,0.01,0.45,0.04,0.67c0.02,0.2,0.04,0.45,0.14,0.63c0.07,0.11,0.19,0.19,0.32,0.16
		c0.13-0.03,0.25-0.14,0.36-0.22c0.11-0.08,0.23-0.16,0.34-0.24c0.15-0.1,0.29-0.21,0.44-0.31C14.96,7.4,14.99,7.38,15.01,7.35z"/>
	<path class="st6" d="M22.83,7.37c0.02,0.04,0.05,0.08,0.08,0.12c0.08,0.09,0.18,0.15,0.26,0.24c0.08,0.08,0.16,0.19,0.27,0.22
		c0.15,0.05,0.3-0.04,0.44-0.09c0.12-0.04,0.24-0.09,0.35-0.13c0.21-0.08,0.57-0.13,0.63-0.38c0.06-0.28-0.22-0.56-0.38-0.76
		c-0.11-0.13-0.23-0.26-0.36-0.38C24,6.09,23.86,5.98,23.73,5.87c-0.1-0.07-0.19-0.14-0.3-0.2c-0.09-0.06-0.18-0.12-0.29-0.12
		c-0.09,0-0.17,0.04-0.22,0.11c-0.06,0.08-0.06,0.18-0.06,0.28c-0.01,0.12-0.02,0.24-0.02,0.36c-0.01,0.24-0.03,0.47-0.04,0.71
		C22.78,7.14,22.78,7.26,22.83,7.37z"/>
	<path class="st6" d="M25.56,9.05c-0.02-0.2-0.07-0.48-0.27-0.58c-0.13-0.06-0.24-0.02-0.36,0.03c-0.14,0.05-0.28,0.11-0.43,0.16
		c-0.21,0.08-0.63,0.15-0.69,0.4c-0.03,0.13-0.03,0.25-0.03,0.38c0,0.11-0.02,0.23,0.01,0.34c0.05,0.17,0.2,0.27,0.32,0.39
		c0.17,0.15,0.33,0.3,0.49,0.46c0.13,0.13,0.25,0.28,0.42,0.36c0.09,0.04,0.19,0.04,0.27-0.01c0.08-0.05,0.11-0.15,0.14-0.24
		c0.11-0.38,0.16-0.77,0.16-1.17C25.59,9.4,25.58,9.22,25.56,9.05z"/>
	<path class="st6" d="M27.36,8.2c-0.2-0.78-0.52-1.52-0.94-2.2C26,5.33,25.48,4.72,24.88,4.23c-1.18-0.98-2.76-1.59-4.32-1.35
		c-0.06-0.1-0.12-0.2-0.19-0.3c-0.43-0.61-0.96-1.11-1.55-1.49c-0.6-0.38-1.27-0.62-1.98-0.69c-0.3-0.03-0.6-0.02-0.9,0.01
		c-0.23,0.02-0.45,0.03-0.68,0.05c-0.3,0.02-0.6,0.05-0.91,0.07c-0.53,0.04-1.04,0.18-1.52,0.41c-0.15-0.03-0.3-0.06-0.45-0.07
		c-0.29-0.03-0.57-0.01-0.86,0.01c-0.3,0.02-0.59,0.04-0.89,0.06c-0.28,0.02-0.57,0.03-0.85,0.06C9.52,1.04,9.26,1.11,9,1.19
		C8.83,1.25,8.66,1.32,8.5,1.4C8.38,1.38,8.27,1.36,8.15,1.35c-0.23-0.02-0.46-0.01-0.69,0C7.07,1.38,6.68,1.4,6.28,1.43
		c-0.15,0.01-0.3,0.02-0.45,0.03c-0.55,0.04-1.08,0.2-1.56,0.46C3.79,2.18,3.35,2.55,2.97,3C2.6,3.46,2.28,3.99,2.06,4.59
		C1.83,5.2,1.7,5.86,1.67,6.56C1.64,7.3,1.74,8.02,1.94,8.67c0.2,0.66,0.5,1.25,0.88,1.76c0.38,0.5,0.84,0.92,1.35,1.22
		c0.51,0.3,1.07,0.48,1.67,0.52C6.42,12.2,7,12.24,7.57,12.28c-0.04-0.01-0.08-0.01-0.13-0.02c0.17,0.01,0.34,0.03,0.51,0.02
		c0.11,0,0.45-0.11,0.54-0.06c0.47,0.23,0.97,0.37,1.5,0.41c0.76,0.05,1.56,0.19,2.32,0.12c0.11-0.01,0.41-0.12,0.51-0.08
		c0.48,0.23,0.99,0.37,1.53,0.41c0,0.02,1.57,0.12,1.73,0.13c-0.04-0.01-0.07-0.01-0.11-0.02c0.18,0.03,0.38,0.03,0.56,0.03
		c0,0,0.01,0,0.01,0c0.39,0.54,0.85,1.02,1.36,1.42c1.22,0.95,2.84,1.48,4.38,1.14c0.21-0.05,0.41-0.11,0.61-0.18
		c0.95-0.36,2-0.65,2.81-1.3c0.51-0.41,0.94-0.94,1.25-1.57c0.31-0.62,0.52-1.34,0.59-2.13C27.64,9.79,27.56,8.98,27.36,8.2z
		 M5.75,9.51C5.5,9.21,5.29,8.86,5.13,8.47C4.97,8.08,4.87,7.65,4.83,7.2C4.79,6.63,4.84,6.08,4.99,5.57
		c0.14-0.5,0.37-0.96,0.66-1.34c0.19-0.24,0.4-0.45,0.63-0.63c-0.14,0.25-0.26,0.52-0.37,0.8C5.66,5.06,5.52,5.78,5.49,6.54
		c-0.03,0.81,0.07,1.58,0.29,2.3c0.13,0.42,0.3,0.82,0.5,1.19C6.09,9.87,5.91,9.7,5.75,9.51z M9.77,9.75
		C9.5,9.42,9.27,9.04,9.1,8.62C8.93,8.19,8.82,7.73,8.78,7.24C8.72,6.61,8.79,6.01,8.94,5.46c0.15-0.55,0.4-1.04,0.72-1.46
		c0.22-0.29,0.48-0.54,0.76-0.74c-0.17,0.3-0.32,0.62-0.44,0.95C9.71,4.92,9.55,5.7,9.52,6.51C9.49,7.38,9.6,8.22,9.83,8.98
		c0.15,0.49,0.35,0.95,0.59,1.37C10.19,10.19,9.97,9.99,9.77,9.75z M17.82,3.15c-0.04-0.02-0.09-0.05-0.14-0.07
		C17.53,3,17.33,2.9,17.16,3C17.05,3.07,17,3.21,17,3.34v1.3c-0.1,0.08-0.21,0.17-0.31,0.26c-0.26,0.25-0.5,0.54-0.71,0.86
		c-0.21,0.32-0.38,0.68-0.52,1.06c-0.14,0.39-0.24,0.8-0.3,1.24c-0.01,0.11-0.02,0.23-0.03,0.34l-0.82,0.59
		c-0.09,0.07-0.15,0.18-0.16,0.29c-0.03,0.29,0.24,0.51,0.43,0.69c0.21,0.2,0.45,0.36,0.71,0.5c0.01,0.02,0.01,0.05,0.01,0.07
		c0.04,0.16,0.09,0.32,0.14,0.47c-0.14-0.06-0.28-0.12-0.42-0.19c-0.38-0.21-0.72-0.5-1.01-0.85c-0.3-0.35-0.54-0.77-0.73-1.22
		C13.1,8.3,12.98,7.8,12.94,7.27c-0.06-0.68,0.01-1.33,0.18-1.92c0.17-0.59,0.43-1.12,0.77-1.57c0.34-0.44,0.75-0.8,1.21-1.04
		c0.83-0.44,1.83-0.46,2.68-0.07c0.23,0.11,0.45,0.24,0.65,0.4c0.16,0.13,0.31,0.27,0.46,0.43c-0.12,0.07-0.23,0.13-0.35,0.2
		c-0.01,0-0.32-0.28-0.35-0.3C18.08,3.3,17.95,3.22,17.82,3.15z M25.68,11.2c-0.19,0.51-0.49,0.97-0.9,1.34
		c-0.86,0.77-2.13,0.94-3.2,0.57c-0.45-0.15-0.87-0.39-1.25-0.7c-0.38-0.31-0.72-0.68-1.01-1.09c-0.29-0.42-0.52-0.88-0.68-1.36
		c-0.16-0.48-0.25-0.99-0.26-1.5c-0.01-0.65,0.11-1.24,0.32-1.75c0.21-0.51,0.53-0.93,0.91-1.26c0.38-0.32,0.83-0.55,1.32-0.65
		c1.12-0.24,2.28,0.17,3.14,0.89c0.36,0.3,0.69,0.66,0.96,1.06c0.27,0.4,0.49,0.84,0.65,1.31c0.16,0.46,0.25,0.95,0.27,1.44
		C25.97,10.07,25.89,10.66,25.68,11.2z"/>
	<path class="st6" d="M22.91,9.97c0.1-0.08,0.18-0.18,0.24-0.31c0.06-0.12,0.1-0.27,0.11-0.42c0.01-0.16-0.01-0.31-0.05-0.46
		c-0.04-0.15-0.11-0.29-0.2-0.42c-0.09-0.13-0.19-0.24-0.31-0.33c-0.12-0.09-0.25-0.16-0.39-0.19c-0.14-0.04-0.28-0.04-0.41-0.01
		c-0.13,0.03-0.24,0.08-0.34,0.16c-0.1,0.08-0.18,0.18-0.25,0.31c-0.06,0.12-0.1,0.27-0.11,0.42c-0.01,0.16,0.01,0.32,0.05,0.47
		c0.04,0.15,0.11,0.29,0.2,0.42c0.16,0.24,0.42,0.45,0.71,0.52c0.14,0.04,0.28,0.04,0.41,0.01C22.7,10.11,22.82,10.05,22.91,9.97z
		 M22.2,9.6c-0.08-0.02-0.15-0.05-0.21-0.1c-0.13-0.09-0.23-0.25-0.28-0.4c-0.07-0.24-0.02-0.54,0.21-0.67
		c0.18-0.11,0.41-0.07,0.57,0.05c0.06,0.05,0.12,0.11,0.17,0.18s0.08,0.14,0.11,0.22c0.02,0.08,0.03,0.16,0.03,0.25
		c-0.01,0.2-0.12,0.39-0.31,0.46C22.39,9.62,22.29,9.62,22.2,9.6z"/>
	<path class="st6" d="M20,6.33c0.3,0.28,0.61,0.57,0.91,0.85c0.1,0.1,0.21,0.21,0.36,0.19c0.09-0.01,0.18-0.07,0.26-0.1
		c0.1-0.04,0.22-0.04,0.31-0.12c0.13-0.11,0.1-0.31,0.12-0.47c0.01-0.15,0.02-0.3,0.03-0.45c0.01-0.14,0.01-0.29,0.03-0.43
		c0.01-0.13,0.03-0.25-0.02-0.37c-0.12-0.36-0.54-0.3-0.84-0.24c-0.4,0.07-0.78,0.24-1.11,0.47c-0.06,0.04-0.12,0.09-0.16,0.15
		C19.8,5.98,19.87,6.21,20,6.33z"/>
	<path class="st6" d="M21.6,10.64c-0.1-0.22-0.27-0.39-0.48-0.54c-0.15-0.11-0.3-0.06-0.46,0c-0.2,0.08-0.4,0.15-0.6,0.23
		c-0.14,0.05-0.34,0.09-0.45,0.2c-0.07,0.06-0.1,0.15-0.1,0.24c-0.01,0.32,0.32,0.63,0.53,0.84c0.31,0.33,0.69,0.69,1.12,0.87
		c0.08,0.03,0.16,0.05,0.24,0.02c0.25-0.08,0.21-0.42,0.23-0.63c0.03-0.31,0.1-0.65,0.06-0.96C21.66,10.81,21.64,10.72,21.6,10.64z"
		/>
	<path class="st6" d="M24.46,11.61c-0.15-0.14-0.3-0.28-0.45-0.42c-0.11-0.1-0.22-0.21-0.33-0.31c-0.2-0.18-0.33-0.36-0.62-0.24
		c-0.13,0.05-0.31,0.09-0.41,0.17c-0.13,0.11-0.11,0.32-0.12,0.48c-0.01,0.16-0.02,0.31-0.03,0.47c-0.01,0.22-0.03,0.43-0.04,0.65
		c-0.01,0.17,0.08,0.36,0.24,0.43c0.18,0.08,0.43,0.02,0.61-0.03c0.29-0.06,0.57-0.18,0.82-0.33c0.18-0.11,0.43-0.25,0.47-0.48
		C24.62,11.86,24.56,11.71,24.46,11.61z"/>
	<path class="st6" d="M20.53,9.07c0.01,0,0.01-0.01,0.02-0.01c0.18-0.18,0.15-0.55,0.13-0.78c-0.01-0.11-0.06-0.22-0.15-0.3
		c-0.17-0.16-0.34-0.31-0.51-0.47c-0.1-0.1-0.21-0.19-0.31-0.29c-0.11-0.1-0.22-0.25-0.37-0.28c-0.11-0.03-0.23,0-0.3,0.1
		c-0.04,0.06-0.07,0.13-0.09,0.2c-0.19,0.63-0.23,1.31-0.12,1.96c0.03,0.18,0.17,0.34,0.36,0.36c0.24,0.03,0.48-0.11,0.7-0.2
		C20.1,9.25,20.36,9.23,20.53,9.07z"/>
</g>
</svg>
