<?xml version="1.0" encoding="utf-8"?>
<!-- Generator: Adobe Illustrator 24.0.2, SVG Export Plug-In . SVG Version: 6.00 Build 0)  -->
<svg version="1.1" id="Capa_1" xmlns="http://www.w3.org/2000/svg" xmlns:xlink="http://www.w3.org/1999/xlink" x="0px" y="0px"
	 viewBox="0 0 178 353.69" style="enable-background:new 0 0 178 353.69;" xml:space="preserve">
<style type="text/css">
	.st0{fill:#FFFFFF;stroke:#050606;stroke-width:4;stroke-miterlimit:10;}
	.st1{fill:#832426;}
	.st2{fill:#FFFFFF;stroke:#832426;stroke-width:4;stroke-miterlimit:10;}
</style>
<g>
	<path class="st0" d="M33.68,277.76v36c0,6.09-4.99,11.08-11.08,11.08l0,0c-6.09,0-11.08-4.99-11.08-11.08v-36
		c0-6.09,4.99-11.08,11.08-11.08l0,0C28.69,266.68,33.68,271.66,33.68,277.76z"/>
	<path class="st1" d="M160.64,277.76v36c0,6.09-4.99,11.08-11.08,11.08l0,0c-6.09,0-11.08-4.99-11.08-11.08v-36
		c0-6.09,4.99-11.08,11.08-11.08l0,0C155.65,266.68,160.64,271.66,160.64,277.76z"/>
	<path class="st0" d="M32.03,41.94v36c0,6.09-4.99,11.08-11.08,11.08l0,0c-6.09,0-11.08-4.99-11.08-11.08v-36
		c0-6.09,4.99-11.08,11.08-11.08l0,0C27.05,30.86,32.03,35.84,32.03,41.94z"/>
	<path class="st0" d="M165,41.94v36c0,6.09-4.99,11.08-11.08,11.08l0,0c-6.09,0-11.08-4.99-11.08-11.08v-36
		c0-6.09,4.99-11.08,11.08-11.08l0,0C160.01,30.86,165,35.84,165,41.94z"/>
	<path class="st2" d="M37.84,18.38c-12.27,6.51-14.95,41.78-15.13,57.94c-0.12,7.82,0.68,16.95,0.63,27.74
		c0,2.14-0.01,4.33-0.01,6.56c-0.49,0.25-1.4,0.79-2.51,1.45c-1.62,0.97-3.62,2.17-5.2,2.97c-2.88,1.53-3.7,3.48-4.03,5.92
		c0,0.02,0,0.04,0.01,0.05c-0.03,0.04-0.06,0.08-0.07,0.14c-0.05,0.56,0.06,0.93,0.33,1.14c0.38,0.3,0.95,0.21,1.51,0.07
		c0.35-0.1,1.45-0.45,2.75-0.88c2.22-0.71,5.25-1.68,5.97-1.86c0.47-0.11,0.87-0.24,1.23-0.41c-0.04,63.91,0.61,154.57,1.57,168.23
		c1.48,20.55,6.51,36.99,10.39,41.38c3.93,4.45,21.56,11.3,51.85,11.3s47.92-6.85,51.8-11.3c3.94-4.39,8.91-20.83,10.39-41.38
		c1-13.66,1.62-104.33,1.57-168.24c0.33,0.16,0.72,0.29,1.22,0.41c0.78,0.18,3.9,1.19,6.18,1.93c1.21,0.39,2.21,0.71,2.55,0.81
		c0.58,0.14,1.17,0.22,1.54-0.07c0.22-0.17,0.32-0.44,0.32-0.8c0-0.11-0.01-0.23-0.03-0.32V121c0-0.01,0-0.02,0-0.04
		c-0.34-2.45-1.16-4.39-4.09-5.92c-1.5-0.77-3.43-1.92-4.97-2.85c-1.21-0.73-2.2-1.32-2.75-1.59c0-2.22-0.01-4.42-0.01-6.56
		c0-10.79,0.74-19.92,0.68-27.74c-0.17-16.16-2.91-51.43-15.13-57.94c-6.34-3.37-29.23-9.82-49.32-9.82
		C67.07,8.56,44.18,15.01,37.84,18.38z M29,180.26c-0.51-24.2-0.74-47.49-0.74-63.42l3.14,2.34c3.6,23.86,6.39,45.72,6.8,67.13
		C34.88,184.48,31.39,182.2,29,180.26z M123.41,311.09c0,3.49-1.14,4.63-4.06,5.25c-9.99,2.11-20.38,3.08-32.25,3.08
		c-11.81,0-22.2-0.97-32.19-3.08c-2.91-0.63-4.05-1.77-4.05-5.25c0-6.96,0-16.61,0-27.17c0-3.65,1.59-5.03,4.56-4.8
		c10.85,0.91,19.87,1.2,31.68,1.2c11.87,0,20.89-0.29,31.74-1.2c2.97-0.23,4.57,1.15,4.57,4.8
		C123.41,294.48,123.41,304.13,123.41,311.09z M137.8,256.86l1.82,4.11c1.09,2.23,1.2,3.37,0.97,5.71
		c-0.28,2.46-0.57,4.68-0.97,6.91c-0.17,0.63-0.56,2.57-1.14,4.97c-0.63,2.74-1.02,2.86-1.2-0.12c-0.29-6.45-0.57-13.47-0.74-21.35
		C136.54,255.26,136.99,255.15,137.8,256.86z M37.67,257.09c-0.17,7.88-0.4,14.9-0.74,21.35c-0.12,2.97-0.57,2.86-1.2,0.12
		c-0.57-2.4-0.97-4.34-1.08-4.97c-0.4-2.22-0.75-4.45-0.97-6.91c-0.29-2.34-0.11-3.48,0.91-5.71l1.83-4.11
		C37.27,255.15,37.73,255.26,37.67,257.09z M29.22,193.49c2.68,1.31,5.88,2.46,9.02,3.37c-0.05,20.55-0.12,36.93-0.29,50.69
		l-3.4,2.36l-3.16,2.04C30.42,235.16,29.74,214.33,29.22,193.49z M142.82,250.75l-3.32-2.14l-3.19-2.26
		c-0.22-13.76-0.29-30.14-0.29-50.69c3.08-0.91,6.34-2.05,8.96-3.37C144.53,213.14,143.78,233.97,142.82,250.75z M145.27,180.26
		c-2.39,1.94-5.87,4.22-9.19,6.05c0.4-21.4,3.14-43.27,6.73-67.13l3.2-2.34C145.95,132.76,145.78,156.06,145.27,180.26z
		 M135.63,79.14c3.76,1.72,4.94,2.43,4.94,5.83c0,1.12-0.13,2.52-0.33,4.28c-0.76,6.78-1.97,15.01-3.37,24.55
		c-0.9,6.1-1.82,12.41-2.74,19.07c-0.64,4.57-2.55,6.2-6.81,5.84c-13.9-1.56-27.43-2.34-40.22-2.34c-12.82,0-26.33,0.79-40.15,2.34
		c-4.34,0.37-6.25-1.27-6.82-5.84c-0.9-6.55-1.82-12.78-2.72-18.8c-1.43-9.64-2.65-17.97-3.4-24.81c-0.21-1.86-0.33-3.23-0.33-4.33
		c0-3.37,1.19-4.07,4.95-5.78c13.82-6.24,26.18-9.85,48.47-9.85C109.45,69.29,121.8,72.9,135.63,79.14z M119.76,20.1
		c7.27,2.34,12.24,4.66,15.65,7.3c3.54,2.69,4.58,5.02,5.24,8.39c0.82,4.2,1.03,13.42,1.03,18.21c0,0.8-0.32,1.07-0.59,1.15
		c-0.64,0.2-1.48-0.48-1.87-1.04c-1.28-1.7-5.12-5.79-7.4-8.23c-0.83-0.89-1.44-1.55-1.66-1.79c-0.19-0.2-0.41-0.38-0.64-0.56
		c-0.69-0.56-1.47-1.19-2.04-2.97c-2.67-9-5.71-15.84-8.57-19.31c-0.52-0.66-0.55-1.03-0.26-1.23
		C118.87,19.87,119.2,19.9,119.76,20.1z M55.6,20.01c0.11,0.08,0.18,0.21,0.18,0.35c0,0.22-0.15,0.5-0.49,0.89
		c-2.85,3.46-5.88,10.3-8.54,19.24c-0.55,1.83-1.35,2.47-2.06,3.03c-0.23,0.18-0.46,0.36-0.65,0.57c-0.2,0.22-0.77,0.83-1.53,1.65
		c-2.17,2.32-6.2,6.64-7.46,8.37c-0.4,0.55-1.26,1.25-1.91,1.04c-0.27-0.09-0.6-0.36-0.6-1.15c0-6.47,0.34-14.61,1.09-18.21
		c0.67-3.36,1.69-5.69,5.18-8.39c3.53-2.68,8.52-5,15.73-7.3C55.07,19.9,55.39,19.87,55.6,20.01z"/>
	<path class="st0" d="M71.62,304.84h36c6.09,0,11.08,4.99,11.08,11.08l0,0c0,6.09-4.99,11.08-11.08,11.08h-36
		c-6.09,0-11.08-4.99-11.08-11.08l0,0C60.54,309.82,65.52,304.84,71.62,304.84z"/>
</g>
</svg>

