<?xml version="1.0" encoding="utf-8"?>
<!-- Generator: Adobe Illustrator 24.0.2, SVG Export Plug-In . SVG Version: 6.00 Build 0)  -->
<svg version="1.1" id="Capa_1" xmlns="http://www.w3.org/2000/svg" xmlns:xlink="http://www.w3.org/1999/xlink" x="0px" y="0px"
	 viewBox="0 0 16 13" style="enable-background:new 0 0 16 13;" xml:space="preserve">
<style type="text/css">
	.st0{fill:#5AA8DD;}
	.st1{fill:#7AB957;}
	.st2{fill:#EBD74D;}
	.st3{fill:#E8E8E8;}
	.st4{fill:#D1D0D1;}
	.st5{fill:#D93730;}
	.st6{fill:#8B0A2D;}
	.st7{fill:none;stroke:#8B0A2D;stroke-width:0.2;stroke-miterlimit:10;}
	.st8{fill:#1D1D1B;}
	.st9{fill:none;stroke:#616160;stroke-width:0.5;stroke-miterlimit:10;}
	.st10{fill:#909090;}
	.st11{fill:none;stroke:#6F6F6E;stroke-width:0.75;stroke-miterlimit:10;}
	.st12{fill:#616160;}
	.st13{fill:none;stroke:#4C4B4C;stroke-width:0.5;stroke-miterlimit:10;}
	.st14{fill:#4C4B4C;}
	.st15{fill:none;stroke:#4C4B4C;stroke-width:0.25;stroke-miterlimit:10;}
	.st16{fill:none;stroke:#FFFFFF;stroke-width:2.5099;stroke-miterlimit:10;}
	.st17{fill:#FFFFFF;}
	.st18{fill:none;stroke:#FFFFFF;stroke-width:3.2007;stroke-miterlimit:10;}
	.st19{fill:none;stroke:#050505;stroke-width:4;stroke-miterlimit:10;}
	.st20{fill:#822425;}
	.st21{fill:#FFFFFF;stroke:#822425;stroke-width:4;stroke-miterlimit:10;}
	.st22{fill:#FFFFFF;stroke:#050505;stroke-width:4;stroke-miterlimit:10;}
</style>
<g>
	<path class="st6" d="M5.84,1.7c2.03,0,3.2,1.73,3.2,4.75c0,3.93-1.74,4.75-3.2,4.75c-2.49,0-5.27-2.03-5.27-4.75S3.35,1.7,5.84,1.7
		z M5.84,10.49c1.64,0,2.48-1.36,2.48-4.03c0-1.51-0.32-4.03-2.48-4.03c-2.15,0-4.55,1.73-4.55,4.03
		C1.29,8.76,3.69,10.49,5.84,10.49z"/>
	<path class="st6" d="M9.71,10.14h4.89c0.2,0,0.36,0.16,0.36,0.36c0,0.2-0.16,0.36-0.36,0.36H9.71c-0.2,0-0.36-0.16-0.36-0.36
		C9.35,10.3,9.51,10.14,9.71,10.14z"/>
	<path class="st6" d="M10.01,8.17h4.59c0.2,0,0.36,0.16,0.36,0.36c0,0.2-0.16,0.36-0.36,0.36h-4.59c-0.2,0-0.36-0.16-0.36-0.36
		C9.65,8.33,9.81,8.17,10.01,8.17z"/>
	<path class="st6" d="M10.15,6.19h4.45c0.2,0,0.36,0.16,0.36,0.36c0,0.2-0.16,0.36-0.36,0.36h-4.45c-0.2,0-0.36-0.16-0.36-0.36
		C9.79,6.35,9.95,6.19,10.15,6.19z"/>
	<path class="st6" d="M10.01,4.22h4.59c0.2,0,0.36,0.16,0.36,0.36c0,0.2-0.16,0.36-0.36,0.36h-4.59c-0.2,0-0.36-0.16-0.36-0.36
		S9.81,4.22,10.01,4.22z"/>
	<path class="st6" d="M9.71,2.24h4.89c0.2,0,0.36,0.16,0.36,0.36c0,0.2-0.16,0.36-0.36,0.36H9.71c-0.2,0-0.36-0.16-0.36-0.36
		C9.35,2.4,9.51,2.24,9.71,2.24z"/>
</g>
</svg>
