<?xml version="1.0" encoding="utf-8"?>
<!-- Generator: Adobe Illustrator 24.0.2, SVG Export Plug-In . SVG Version: 6.00 Build 0)  -->
<svg version="1.1" id="Capa_1" xmlns="http://www.w3.org/2000/svg" xmlns:xlink="http://www.w3.org/1999/xlink" x="0px" y="0px"
	 viewBox="0 0 13 13" style="enable-background:new 0 0 13 13;" xml:space="preserve">
<style type="text/css">
	.st0{fill:#5AA8DD;}
	.st1{fill:#7AB957;}
	.st2{fill:#EBD74D;}
	.st3{fill:#E8E8E8;}
	.st4{fill:#D1D0D1;}
	.st5{fill:#D93730;}
	.st6{fill:#8B0A2D;}
	.st7{fill:none;stroke:#8B0A2D;stroke-width:0.2;stroke-miterlimit:10;}
	.st8{fill:#1D1D1B;}
	.st9{fill:none;stroke:#616160;stroke-width:0.5;stroke-miterlimit:10;}
	.st10{fill:#909090;}
	.st11{fill:none;stroke:#6F6F6E;stroke-width:0.75;stroke-miterlimit:10;}
	.st12{fill:#616160;}
	.st13{fill:none;stroke:#4C4B4C;stroke-width:0.5;stroke-miterlimit:10;}
	.st14{fill:#4C4B4C;}
	.st15{fill:none;stroke:#4C4B4C;stroke-width:0.25;stroke-miterlimit:10;}
	.st16{fill:none;stroke:#FFFFFF;stroke-width:2.5099;stroke-miterlimit:10;}
	.st17{fill:#FFFFFF;}
	.st18{fill:none;stroke:#FFFFFF;stroke-width:3.2007;stroke-miterlimit:10;}
	.st19{fill:none;stroke:#050505;stroke-width:4;stroke-miterlimit:10;}
	.st20{fill:#822425;}
	.st21{fill:#FFFFFF;stroke:#822425;stroke-width:4;stroke-miterlimit:10;}
	.st22{fill:#FFFFFF;stroke:#050505;stroke-width:4;stroke-miterlimit:10;}
</style>
<g transform="translate(0,-952.36218)">
	<path class="st6" d="M7.02,953.48c-0.01,0-0.02,0-0.03,0.01c0,0-0.01,0-0.01,0c-3.2,0.04-5.81,2.5-5.81,5.56
		c0,0.11,0,0.23,0.01,0.34c0.01,0.2,0.18,0.35,0.38,0.35h0.87c0.13,2.5,2.21,4.5,4.75,4.5c2.62,0,4.75-2.13,4.75-4.75
		c0-2.54-2-4.61-4.5-4.75v-0.88H7.43c0-0.02,0-0.04,0-0.05c-0.01-0.07-0.05-0.14-0.1-0.2c-0.01-0.01-0.02-0.02-0.03-0.03
		c-0.02-0.02-0.04-0.03-0.06-0.04c-0.01-0.01-0.02-0.01-0.04-0.02c-0.02-0.01-0.05-0.02-0.07-0.02c-0.01,0-0.02-0.01-0.04-0.01
		c-0.01,0-0.03,0-0.04,0c0,0,0,0,0,0C7.05,953.48,7.04,953.48,7.02,953.48L7.02,953.48z M6.69,954.26v1.25
		c-1.84,0.18-3.34,1.67-3.37,3.47H1.94C1.98,956.48,4.04,954.45,6.69,954.26z M7.44,955.49c2.1,0.13,3.75,1.86,3.75,4
		c0,2.22-1.79,4-4,4c-2.13,0-3.87-1.65-4-3.75h0.49c0.21,0,0.38-0.17,0.38-0.38v-0.31c0-1.5,1.37-2.82,3-2.82
		c0.21,0,0.38-0.17,0.38-0.38V955.49L7.44,955.49z M7.19,956.86c-1.45,0-2.63,1.18-2.63,2.63c0,1.45,1.18,2.63,2.63,2.63
		s2.63-1.18,2.63-2.63C9.82,958.04,8.63,956.86,7.19,956.86L7.19,956.86z M7.19,957.61c1.04,0,1.88,0.84,1.88,1.88
		s-0.84,1.88-1.88,1.88s-1.88-0.84-1.88-1.88S6.15,957.61,7.19,957.61z M6.52,958.04c-0.05,0-0.1,0.01-0.14,0.04
		c-0.12,0.07-0.16,0.22-0.09,0.34c0.07,0.12,0.22,0.16,0.34,0.09c0.12-0.07,0.16-0.22,0.09-0.34C6.67,958.09,6.6,958.05,6.52,958.04
		L6.52,958.04z M7.86,958.04c-0.08,0.01-0.16,0.05-0.2,0.13c-0.07,0.12-0.03,0.27,0.09,0.34c0.12,0.07,0.27,0.03,0.34-0.09
		c0.07-0.12,0.03-0.27-0.09-0.34C7.96,958.05,7.91,958.04,7.86,958.04L7.86,958.04z M7.19,958.61c-0.48,0-0.88,0.4-0.88,0.88
		c0,0.48,0.4,0.88,0.88,0.88s0.88-0.4,0.88-0.88C8.06,959,7.67,958.61,7.19,958.61z M5.81,959.23c-0.14,0-0.25,0.11-0.25,0.25
		s0.11,0.25,0.25,0.25s0.25-0.11,0.25-0.25C6.06,959.35,5.95,959.23,5.81,959.23z M8.56,959.23c-0.14,0-0.25,0.11-0.25,0.25
		s0.11,0.25,0.25,0.25c0.14,0,0.25-0.11,0.25-0.25C8.81,959.35,8.7,959.23,8.56,959.23z M7.19,959.36c0.07,0,0.13,0.05,0.13,0.13
		s-0.05,0.13-0.13,0.13c-0.07,0-0.13-0.05-0.13-0.13S7.11,959.36,7.19,959.36z M6.48,960.43c-0.08,0.01-0.16,0.05-0.2,0.13
		c-0.07,0.12-0.03,0.27,0.09,0.34c0.12,0.07,0.27,0.03,0.34-0.09c0.07-0.12,0.03-0.27-0.09-0.34
		C6.58,960.43,6.53,960.42,6.48,960.43z M7.84,960.43c-0.03,0-0.06,0.01-0.09,0.03c-0.12,0.07-0.16,0.22-0.09,0.34
		c0.07,0.12,0.22,0.16,0.34,0.09c0.12-0.07,0.16-0.22,0.09-0.34C8.04,960.46,7.94,960.41,7.84,960.43z"/>
</g>
</svg>
