<?xml version="1.0" encoding="utf-8"?>
<!-- Generator: Adobe Illustrator 24.0.2, SVG Export Plug-In . SVG Version: 6.00 Build 0)  -->
<svg version="1.1" id="Capa_1" xmlns="http://www.w3.org/2000/svg" xmlns:xlink="http://www.w3.org/1999/xlink" x="0px" y="0px"
	 viewBox="0 0 19 15" style="enable-background:new 0 0 19 15;" xml:space="preserve">
<style type="text/css">
	.st0{fill:#5AA8DD;}
	.st1{fill:#7AB957;}
	.st2{fill:#EBD74D;}
	.st3{fill:#E8E8E8;}
	.st4{fill:#D1D0D1;}
	.st5{fill:#D93730;}
	.st6{fill:#8B0A2D;}
	.st7{fill:none;stroke:#8B0A2D;stroke-width:0.2;stroke-miterlimit:10;}
	.st8{fill:#1D1D1B;}
	.st9{fill:none;stroke:#616160;stroke-width:0.5;stroke-miterlimit:10;}
	.st10{fill:#909090;}
	.st11{fill:none;stroke:#6F6F6E;stroke-width:0.75;stroke-miterlimit:10;}
	.st12{fill:#616160;}
	.st13{fill:none;stroke:#4C4B4C;stroke-width:0.5;stroke-miterlimit:10;}
	.st14{fill:#4C4B4C;}
	.st15{fill:none;stroke:#4C4B4C;stroke-width:0.25;stroke-miterlimit:10;}
	.st16{fill:none;stroke:#FFFFFF;stroke-width:2.5099;stroke-miterlimit:10;}
	.st17{fill:#FFFFFF;}
	.st18{fill:none;stroke:#FFFFFF;stroke-width:3.2007;stroke-miterlimit:10;}
	.st19{fill:none;stroke:#050505;stroke-width:4;stroke-miterlimit:10;}
	.st20{fill:#822425;}
	.st21{fill:#FFFFFF;stroke:#822425;stroke-width:4;stroke-miterlimit:10;}
	.st22{fill:#FFFFFF;stroke:#050505;stroke-width:4;stroke-miterlimit:10;}
</style>
<g>
	<g>
		<path class="st6" d="M4.52,11.25H2.3c-0.45,0-0.81-0.36-0.81-0.81V4.92c0-0.45,0.36-0.81,0.81-0.81h2.22
			c0.45,0,0.81,0.36,0.81,0.81v5.52C5.33,10.89,4.97,11.25,4.52,11.25z M2.58,10.15h1.65V5.21H2.58V10.15z"/>
	</g>
	<g>
		<path class="st6" d="M8.91,14.53c-0.18,0-0.36-0.06-0.51-0.18l-3.97-3.22l0.69-0.85l3.5,2.84V2.24l-3.5,2.84L4.43,4.23L8.4,1.01
			c0.25-0.2,0.58-0.24,0.86-0.1c0.29,0.14,0.46,0.42,0.46,0.73v12.08c0,0.32-0.18,0.6-0.46,0.73C9.15,14.51,9.03,14.53,8.91,14.53z"
			/>
	</g>
	<g>
		<path class="st6" d="M11.12,11.25l-0.59-0.93c0.86-0.55,1.39-1.62,1.39-2.79c0-1.1-0.49-2.14-1.28-2.71l0.64-0.89
			c1.08,0.78,1.73,2.13,1.73,3.6C13.02,9.07,12.29,10.5,11.12,11.25z"/>
	</g>
	<g>
		<path class="st6" d="M13.32,12.35l-0.6-0.92c1.2-0.77,1.95-2.27,1.95-3.91c0-1.57-0.67-2.99-1.78-3.8l0.65-0.89
			c1.4,1.02,2.23,2.77,2.23,4.68C15.77,9.52,14.83,11.37,13.32,12.35z"/>
	</g>
	<g>
		<path class="st6" d="M15.84,13.41l-0.69-0.85c1.23-1,1.99-2.94,1.99-5.06c0-2-0.7-3.89-1.83-4.92l0.74-0.81
			c1.37,1.25,2.18,3.39,2.18,5.73C18.24,9.94,17.32,12.21,15.84,13.41z"/>
	</g>
</g>
</svg>
