<?xml version="1.0" encoding="utf-8"?>
<!-- Generator: Adobe Illustrator 24.0.2, SVG Export Plug-In . SVG Version: 6.00 Build 0)  -->
<svg version="1.1" id="Capa_1" xmlns="http://www.w3.org/2000/svg" xmlns:xlink="http://www.w3.org/1999/xlink" x="0px" y="0px"
	 viewBox="0 0 13 13" style="enable-background:new 0 0 13 13;" xml:space="preserve">
<style type="text/css">
	.st0{fill:#5AA8DD;}
	.st1{fill:#7AB957;}
	.st2{fill:#EBD74D;}
	.st3{fill:#E8E8E8;}
	.st4{fill:#D1D0D1;}
	.st5{fill:#D93730;}
	.st6{fill:#8B0A2D;}
	.st7{fill:none;stroke:#8B0A2D;stroke-width:0.2;stroke-miterlimit:10;}
	.st8{fill:#1D1D1B;}
	.st9{fill:none;stroke:#616160;stroke-width:0.5;stroke-miterlimit:10;}
	.st10{fill:#909090;}
	.st11{fill:none;stroke:#6F6F6E;stroke-width:0.75;stroke-miterlimit:10;}
	.st12{fill:#616160;}
	.st13{fill:none;stroke:#4C4B4C;stroke-width:0.5;stroke-miterlimit:10;}
	.st14{fill:#4C4B4C;}
	.st15{fill:none;stroke:#4C4B4C;stroke-width:0.25;stroke-miterlimit:10;}
	.st16{fill:none;stroke:#FFFFFF;stroke-width:2.5099;stroke-miterlimit:10;}
	.st17{fill:#FFFFFF;}
	.st18{fill:none;stroke:#FFFFFF;stroke-width:3.2007;stroke-miterlimit:10;}
	.st19{fill:none;stroke:#050505;stroke-width:4;stroke-miterlimit:10;}
	.st20{fill:#822425;}
	.st21{fill:#FFFFFF;stroke:#822425;stroke-width:4;stroke-miterlimit:10;}
	.st22{fill:#FFFFFF;stroke:#050505;stroke-width:4;stroke-miterlimit:10;}
</style>
<g>
	<path class="st6" d="M12.72,4.23c-0.37-0.4-0.77-0.77-1.21-1.1c0-0.04,0.01-0.09,0.01-0.13c0-0.55-0.78-2.02-0.94-2.31
		c-0.06-0.1-0.16-0.17-0.28-0.17c-0.12,0-0.22,0.06-0.28,0.17C9.93,0.86,9.63,1.43,9.4,1.98C8.47,1.64,7.49,1.46,6.49,1.46
		c-2.35,0-4.61,1-6.2,2.74C0.2,4.29,0.18,4.42,0.23,4.53l2.23,5.39c0.04,0.09,0.12,0.16,0.21,0.18c0.1,0.02,0.2,0,0.27-0.06
		c0.72-0.57,1.54-0.95,2.42-1.13l0.3,0.97c-0.41,0.24-0.68,0.68-0.68,1.19c0,0.76,0.62,1.39,1.39,1.39s1.39-0.62,1.39-1.39
		c0-0.76-0.62-1.39-1.39-1.39c-0.03,0-0.07,0-0.1,0.01L5.99,8.83c0.16-0.01,0.33-0.02,0.49-0.02c1.31,0,2.55,0.44,3.57,1.26
		c0.06,0.05,0.13,0.07,0.2,0.07c0.03,0,0.05,0,0.08-0.01c0.1-0.02,0.18-0.09,0.21-0.18l2.23-5.38C12.82,4.45,12.8,4.32,12.72,4.23z
		 M7.12,11.08c0,0.42-0.34,0.76-0.76,0.76c-0.42,0-0.76-0.34-0.76-0.76c0-0.42,0.34-0.76,0.76-0.76
		C6.78,10.32,7.12,10.66,7.12,11.08z M10.3,1.53C10.62,2.16,10.89,2.8,10.89,3c0,0.32-0.26,0.58-0.58,0.58
		C9.98,3.58,9.72,3.32,9.72,3C9.72,2.8,9.99,2.16,10.3,1.53z M2.89,9.31l-2-4.82C1.62,3.72,2.5,3.12,3.46,2.71l1.72,5.6
		C4.36,8.48,3.58,8.82,2.89,9.31z M10.12,9.33C9.06,8.58,7.78,8.18,6.49,8.18c-0.23,0-0.46,0.01-0.68,0.04L4.05,2.49
		c0.78-0.26,1.6-0.4,2.44-0.4c0.93,0,1.83,0.16,2.69,0.48C9.12,2.74,9.09,2.89,9.09,3c0,0.67,0.54,1.21,1.21,1.21
		c0.39,0,0.74-0.19,0.96-0.48c0.3,0.24,0.59,0.49,0.85,0.77L10.12,9.33z"/>
</g>
</svg>
