<?xml version="1.0" encoding="utf-8"?>
<!-- Generator: Adobe Illustrator 24.0.2, SVG Export Plug-In . SVG Version: 6.00 Build 0)  -->
<svg version="1.1" id="Capa_1" xmlns="http://www.w3.org/2000/svg" xmlns:xlink="http://www.w3.org/1999/xlink" x="0px" y="0px"
	 viewBox="0 0 16 15" style="enable-background:new 0 0 16 15;" xml:space="preserve">
<style type="text/css">
	.st0{fill:#5AA8DD;}
	.st1{fill:#7AB957;}
	.st2{fill:#EBD74D;}
	.st3{fill:#E8E8E8;}
	.st4{fill:#D1D0D1;}
	.st5{fill:#D93730;}
	.st6{fill:#8B0A2D;}
	.st7{fill:none;stroke:#8B0A2D;stroke-width:0.2;stroke-miterlimit:10;}
	.st8{fill:#1D1D1B;}
	.st9{fill:none;stroke:#616160;stroke-width:0.5;stroke-miterlimit:10;}
	.st10{fill:#909090;}
	.st11{fill:none;stroke:#6F6F6E;stroke-width:0.75;stroke-miterlimit:10;}
	.st12{fill:#616160;}
	.st13{fill:none;stroke:#4C4B4C;stroke-width:0.5;stroke-miterlimit:10;}
	.st14{fill:#4C4B4C;}
	.st15{fill:none;stroke:#4C4B4C;stroke-width:0.25;stroke-miterlimit:10;}
	.st16{fill:none;stroke:#FFFFFF;stroke-width:2.5099;stroke-miterlimit:10;}
	.st17{fill:#FFFFFF;}
	.st18{fill:none;stroke:#FFFFFF;stroke-width:3.2007;stroke-miterlimit:10;}
	.st19{fill:none;stroke:#050505;stroke-width:4;stroke-miterlimit:10;}
	.st20{fill:#822425;}
	.st21{fill:#FFFFFF;stroke:#822425;stroke-width:4;stroke-miterlimit:10;}
	.st22{fill:#FFFFFF;stroke:#050505;stroke-width:4;stroke-miterlimit:10;}
</style>
<g>
	<path class="st6" d="M14.51,12.07c-0.59,0.55-1.58,1.32-1.96,1.32l0,0c-0.23,0-0.62-0.32-0.96-0.6c-0.45-0.37-0.86-0.72-1.28-0.72
		l0,0c-0.42,0-0.85,0.35-1.3,0.72c-0.35,0.29-0.73,0.6-0.98,0.6l0,0c-0.23,0-0.62-0.35-0.95-0.63C6.64,12.37,6.22,12,5.8,12l0,0
		c-0.43,0-0.86,0.37-1.32,0.76c-0.36,0.3-0.75,0.63-0.99,0.63l0,0c-0.37,0-1.42-0.75-2.04-1.27c-0.1-0.09-0.27-0.07-0.36,0.03
		s-0.07,0.27,0.03,0.36c0.27,0.23,1.67,1.38,2.37,1.4l0,0c0.43,0,0.86-0.37,1.32-0.76c0.36-0.3,0.76-0.65,1.01-0.63
		c0.23,0,0.62,0.35,0.95,0.63c0.45,0.39,0.86,0.75,1.28,0.76c0.42-0.01,0.86-0.35,1.31-0.72c0.35-0.29,0.73-0.6,0.98-0.6l0,0
		c0.23,0,0.62,0.32,0.96,0.6c0.45,0.37,0.88,0.72,1.3,0.72h0.01c0.69-0.01,2.03-1.22,2.29-1.47c0.1-0.1,0.12-0.26,0.01-0.36
		C14.78,11.97,14.61,11.97,14.51,12.07z"/>
	<path class="st6" d="M3.5,12.07c0.01,0,0.01,0,0.03,0c0.69-0.03,1.94-1.28,2.19-1.54c0.1-0.1,0.1-0.26,0-0.36
		c-0.1-0.1-0.26-0.1-0.36,0c-0.55,0.56-1.48,1.37-1.84,1.38c-0.37,0.03-1.48-0.73-2.13-1.3c-0.1-0.09-0.27-0.07-0.36,0.03
		c-0.09,0.1-0.07,0.27,0.03,0.36C1.34,10.89,2.77,12.07,3.5,12.07z"/>
	<path class="st6" d="M14.98,10.2c-0.09-0.1-0.24-0.12-0.36-0.03c-0.63,0.55-1.7,1.31-2.09,1.31l0,0c-0.37,0-1.38-0.76-1.97-1.3
		c-0.1-0.1-0.26-0.09-0.36,0.01s-0.09,0.26,0.01,0.36c0.26,0.24,1.61,1.42,2.32,1.42c0,0,0,0,0.01,0c0.72,0,2.14-1.19,2.42-1.42
		C15.07,10.46,15.08,10.3,14.98,10.2z"/>
	<path class="st6" d="M7.98,11.65c0.82,0,1.5-0.68,1.5-1.5c0-0.49-0.23-0.91-0.59-1.18L8.87,8.07h1.44c0.22,0,0.37-0.17,0.37-0.37
		c0-0.22-0.17-0.37-0.37-0.37H8.87l0,0L8.85,5.88h1.47c0.22,0,0.37-0.17,0.37-0.37c0-0.22-0.17-0.37-0.37-0.37H8.84L8.83,4.2h1.5
		c0.22,0,0.37-0.17,0.37-0.37s-0.17-0.37-0.37-0.37h-1.5L8.8,1.91c-0.06-0.4-0.22-0.69-0.43-0.83C8.12,0.92,7.89,0.96,7.89,0.96
		C7.3,0.98,7.08,1.6,7.06,1.93v7.05c-0.35,0.27-0.56,0.69-0.56,1.17C6.49,10.98,7.16,11.65,7.98,11.65z"/>
</g>
</svg>
